<svg width="36" height="36" viewBox="0 0 36 36" fill="none" xmlns="http://www.w3.org/2000/svg">
<g clip-path="url(#clip0_5202_39)">
<path d="M23.3438 24.8967L17.1563 18.7193L10.9688 12.542C10.745 12.3185 10.6185 12.0163 10.6171 11.7017C10.6157 11.3872 10.7395 11.0861 10.9613 10.8646C11.1832 10.6432 11.4848 10.5195 11.7999 10.5209C12.1149 10.5223 12.4177 10.6486 12.6414 10.872L18.8289 17.0494L25.0164 23.2268C25.2402 23.4502 25.3667 23.7524 25.3681 24.067C25.3695 24.3815 25.2457 24.6827 25.0238 24.9041C24.802 25.1256 24.5004 25.2492 24.1853 25.2478C23.8703 25.2464 23.5675 25.1201 23.3438 24.8967Z" fill="black"/>
<g clip-path="url(#clip1_5202_39)">
<path d="M25.0164 12.7144L12.6414 25.0691C12.4177 25.2925 12.1149 25.4188 11.7999 25.4202C11.4848 25.4216 11.1832 25.298 10.9613 25.0765C10.7395 24.8551 10.6157 24.5539 10.6171 24.2394C10.6185 23.9248 10.745 23.6226 10.9688 23.3992L17.1562 17.2218L23.3438 11.0444C23.5675 10.821 23.8703 10.6947 24.1853 10.6933C24.5004 10.6919 24.802 10.8156 25.0238 11.037C25.2457 11.2585 25.3695 11.5596 25.3681 11.8742C25.3667 12.1887 25.2402 12.491 25.0164 12.7144Z" fill="black"/>
</g>
</g>
<defs>
<clipPath id="clip0_5202_39">
<rect width="25.435" height="25.435" fill="white" transform="matrix(-0.707685 0.706528 0.707685 0.706528 18 0)"/>
</clipPath>
<clipPath id="clip1_5202_39">
<rect width="25.435" height="25.435" fill="white" transform="matrix(0.707685 0.706528 0.707685 -0.706528 4.5 22.4632)"/>
</clipPath>
</defs>
</svg>
